<?xml version="1.0" encoding="utf-8"?>
<!-- Generator: Adobe Illustrator 16.0.0, SVG Export Plug-In . SVG Version: 6.00 Build 0)  -->
<!DOCTYPE svg PUBLIC "-//W3C//DTD SVG 1.1//EN" "http://www.w3.org/Graphics/SVG/1.1/DTD/svg11.dtd">
<svg version="1.1" id="icons" xmlns="http://www.w3.org/2000/svg" xmlns:xlink="http://www.w3.org/1999/xlink" x="0px" y="0px"
	 width="64px" height="64px" viewBox="0 0 64 64" enable-background="new 0 0 64 64" xml:space="preserve">
<g>
	<g>
		<polygon fill="#965353" points="8,13 8,46.99 1,53 1,13 1,7 		"/>
		<g>
			<g>
				<path fill="#844747" d="M63,58.002H1c-0.553,0-1-0.447-1-1V13c0-0.553,0.447-1,1-1s1,0.447,1,1v43.002h60V13
					c0-0.553,0.447-1,1-1s1,0.447,1,1v44.002C64,57.555,63.553,58.002,63,58.002z"/>
			</g>
			<polygon fill="#965353" points="63,7 56.99,13 8,13 1,7 			"/>
			<polygon fill="#965353" points="18,46.99 25.99,46.99 53.99,46.99 56.99,46.99 63,53 1,53 8,46.99 			"/>
			<rect x="1" y="53" fill="#844747" width="62" height="4"/>
			<polygon fill="#965353" points="63,13 63,53 56.99,46.99 56.99,13 63,7 			"/>
			<g>
				<path fill="#965353" d="M63,54.002H1c-0.553,0-1-0.447-1-1V6.998c0-0.553,0.447-1,1-1h62c0.553,0,1,0.447,1,1v46.004
					C64,53.555,63.553,54.002,63,54.002z M2,52.002h60V7.998H2V52.002z"/>
			</g>
			<g>
				<path fill="#844747" d="M56.994,14.004c-0.256,0-0.512-0.098-0.707-0.293c-0.391-0.391-0.391-1.023,0-1.414l6.006-6.006
					c0.391-0.391,1.023-0.391,1.414,0s0.391,1.023,0,1.414l-6.006,6.006C57.506,13.906,57.25,14.004,56.994,14.004z"/>
			</g>
			<g>
				<path fill="#844747" d="M63,54.002c-0.256,0-0.512-0.098-0.707-0.293l-6.006-6.006c-0.391-0.391-0.391-1.023,0-1.414
					s1.023-0.391,1.414,0l6.006,6.006c0.391,0.391,0.391,1.023,0,1.414C63.512,53.904,63.256,54.002,63,54.002z"/>
			</g>
			<g>
				<path fill="#844747" d="M1,54.002c-0.281,0-0.562-0.118-0.759-0.35c-0.36-0.419-0.312-1.05,0.108-1.409l7.007-6.006
					c0.419-0.359,1.051-0.313,1.409,0.108c0.36,0.419,0.312,1.05-0.108,1.409L1.65,53.761C1.462,53.923,1.23,54.002,1,54.002z"/>
			</g>
			<g>
				<path fill="#844747" d="M8.007,14.004c-0.23,0-0.462-0.079-0.65-0.241L0.35,7.757c-0.42-0.359-0.469-0.99-0.108-1.409
					C0.601,5.928,1.232,5.88,1.65,6.239l7.007,6.006c0.42,0.359,0.469,0.99,0.108,1.409C8.568,13.886,8.288,14.004,8.007,14.004z"/>
			</g>
			<path fill="#5D9CEC" d="M56.994,12.004H8.007c-0.553,0-1,0.447-1,1v33.992c0,0.553,0.447,1,1,1h48.987c0.553,0,1-0.447,1-1
				V13.004C57.994,12.451,57.547,12.004,56.994,12.004z"/>
		</g>
	</g>
	<circle fill="#FFCE54" cx="17.5" cy="22.5" r="2.5"/>
	<path fill="#545C66" d="M26.766,47.996l4.658-5.986c0.178,0.14,0.382,0.234,0.602,0.234c0.213,0,0.427-0.067,0.608-0.207
		c0.438-0.337,0.52-0.965,0.184-1.402l-4.032-5.24c-0.025-0.033-0.063-0.051-0.092-0.08c-0.032-0.033-0.052-0.074-0.09-0.104
		c-0.021-0.016-0.045-0.019-0.066-0.032c-0.057-0.038-0.116-0.063-0.179-0.088c-0.06-0.024-0.116-0.048-0.178-0.06
		c-0.063-0.012-0.123-0.012-0.187-0.012c-0.065,0-0.128,0-0.191,0.012c-0.061,0.012-0.115,0.035-0.173,0.059
		c-0.064,0.025-0.126,0.051-0.185,0.09c-0.02,0.014-0.043,0.017-0.063,0.031c-0.036,0.027-0.055,0.066-0.085,0.098
		c-0.031,0.031-0.07,0.049-0.098,0.085l-9.698,12.603H26.766z"/>
	<path fill="#656D78" d="M54.485,47.996L40.782,30.388c-0.025-0.032-0.062-0.049-0.09-0.077c-0.03-0.031-0.049-0.07-0.084-0.098
		c-0.021-0.017-0.048-0.021-0.071-0.035c-0.056-0.037-0.113-0.063-0.175-0.088c-0.061-0.024-0.119-0.048-0.182-0.06
		c-0.063-0.013-0.124-0.013-0.188-0.013s-0.124,0-0.187,0.013c-0.063,0.012-0.122,0.035-0.183,0.06
		c-0.062,0.025-0.118,0.051-0.175,0.088c-0.022,0.015-0.049,0.019-0.07,0.035c-0.035,0.027-0.053,0.066-0.084,0.098
		c-0.028,0.028-0.064,0.045-0.09,0.077L25.502,47.996H54.485z"/>
</g>
</svg>
